<?xml version="1.0" encoding="iso-8859-1"?>
<!-- Generator: Adobe Illustrator 19.0.0, SVG Export Plug-In . SVG Version: 6.00 Build 0)  -->
<svg version="1.1" id="Layer_1" xmlns="http://www.w3.org/2000/svg" xmlns:xlink="http://www.w3.org/1999/xlink" x="0px" y="0px"
	 viewBox="0 0 512 512" style="enable-background:new 0 0 512 512;" xml:space="preserve">
<g>
	<path style="fill:#6C747A;" d="M512,437.333H0v-64h512V437.333z M21.333,416h469.333v-21.333H21.333V416z"/>
	<rect x="32" y="426.667" style="fill:#6C747A;" width="21.333" height="32"/>
	<rect x="448" y="426.667" style="fill:#6C747A;" width="21.333" height="32"/>
</g>
<linearGradient id="SVGID_1_" gradientUnits="userSpaceOnUse" x1="-37.4063" y1="618.9688" x2="-27.4063" y2="618.9688" gradientTransform="matrix(10.6667 0 0 -10.6667 473.6667 6826.3335)">
	<stop  offset="0" style="stop-color:#FD6330"/>
	<stop  offset="1" style="stop-color:#FD8530"/>
</linearGradient>
<path style="fill:url(#SVGID_1_);" d="M74.667,53.333v341.333h106.667V53.333H74.667z M128,330.667
	c-5.899,0-10.667-4.779-10.667-10.667s4.768-10.667,10.667-10.667c5.888,0,10.667,4.779,10.667,10.667S133.888,330.667,128,330.667z
	"/>
<g>
	<rect x="96" y="74.667" style="fill:#FFFFFF;" width="64" height="21.333"/>
	<rect x="96" y="117.333" style="fill:#FFFFFF;" width="64" height="21.333"/>
	<rect x="96" y="160" style="fill:#FFFFFF;" width="64" height="21.333"/>
</g>
<path style="fill:#6B3917;" d="M128,352c-17.643,0-32-14.357-32-32c0-17.643,14.357-32,32-32s32,14.357,32,32
	C160,337.643,145.643,352,128,352z M128,309.333c-5.877,0-10.667,4.779-10.667,10.667s4.789,10.667,10.667,10.667
	c5.877,0,10.667-4.779,10.667-10.667S133.877,309.333,128,309.333z"/>
<linearGradient id="SVGID_2_" gradientUnits="userSpaceOnUse" x1="-25.4063" y1="618.9688" x2="-15.4063" y2="618.9688" gradientTransform="matrix(10.6667 0 0 -10.6667 473.6667 6826.3335)">
	<stop  offset="0" style="stop-color:#73DBE6"/>
	<stop  offset="1" style="stop-color:#CAE6B8"/>
</linearGradient>
<path style="fill:url(#SVGID_2_);" d="M202.667,53.333v341.333h106.667V53.333H202.667z M256,330.667
	c-5.899,0-10.667-4.779-10.667-10.667s4.768-10.667,10.667-10.667c5.888,0,10.667,4.779,10.667,10.667S261.888,330.667,256,330.667z
	"/>
<g>
	<rect x="224" y="74.667" style="fill:#FFFFFF;" width="64" height="21.333"/>
	<rect x="224" y="117.333" style="fill:#FFFFFF;" width="64" height="21.333"/>
	<rect x="224" y="160" style="fill:#FFFFFF;" width="64" height="21.333"/>
</g>
<path style="fill:#426664;" d="M256,352c-17.643,0-32-14.357-32-32c0-17.643,14.357-32,32-32s32,14.357,32,32
	C288,337.643,273.643,352,256,352z M256,309.333c-5.877,0-10.667,4.779-10.667,10.667s4.789,10.667,10.667,10.667
	c5.888,0,10.667-4.779,10.667-10.667S261.888,309.333,256,309.333z"/>
<linearGradient id="SVGID_3_" gradientUnits="userSpaceOnUse" x1="-13.4063" y1="618.9688" x2="-3.4063" y2="618.9688" gradientTransform="matrix(10.6667 0 0 -10.6667 473.6667 6826.3335)">
	<stop  offset="0" style="stop-color:#73DBE6"/>
	<stop  offset="1" style="stop-color:#CAE6B8"/>
</linearGradient>
<path style="fill:url(#SVGID_3_);" d="M330.667,53.333v341.333h106.667V53.333H330.667z M384,330.667
	c-5.899,0-10.667-4.779-10.667-10.667s4.768-10.667,10.667-10.667c5.888,0,10.667,4.779,10.667,10.667S389.888,330.667,384,330.667z
	"/>
<g>
	<rect x="352" y="74.667" style="fill:#FFFFFF;" width="64" height="21.333"/>
	<rect x="352" y="117.333" style="fill:#FFFFFF;" width="64" height="21.333"/>
	<rect x="352" y="160" style="fill:#FFFFFF;" width="64" height="21.333"/>
</g>
<path style="fill:#426664;" d="M384,352c-17.643,0-32-14.357-32-32c0-17.643,14.357-32,32-32c17.643,0,32,14.357,32,32
	C416,337.643,401.643,352,384,352z M384,309.333c-5.888,0-10.667,4.779-10.667,10.667s4.779,10.667,10.667,10.667
	c5.888,0,10.667-4.779,10.667-10.667S389.888,309.333,384,309.333z"/>
<linearGradient id="SVGID_4_" gradientUnits="userSpaceOnUse" x1="-37.4063" y1="603.9688" x2="-27.4063" y2="603.9688" gradientTransform="matrix(10.6667 0 0 -10.6667 473.6667 6826.3335)">
	<stop  offset="0" style="stop-color:#6B2B12"/>
	<stop  offset="1" style="stop-color:#6B3D17"/>
</linearGradient>
<rect x="74.667" y="373.333" style="fill:url(#SVGID_4_);" width="106.667" height="21.333"/>
<linearGradient id="SVGID_5_" gradientUnits="userSpaceOnUse" x1="-25.4063" y1="603.9688" x2="-15.4063" y2="603.9688" gradientTransform="matrix(10.6667 0 0 -10.6667 473.6667 6826.3335)">
	<stop  offset="0" style="stop-color:#31646F"/>
	<stop  offset="1" style="stop-color:#566958"/>
</linearGradient>
<rect x="202.667" y="373.333" style="fill:url(#SVGID_5_);" width="106.667" height="21.333"/>
<linearGradient id="SVGID_6_" gradientUnits="userSpaceOnUse" x1="-13.4063" y1="603.9688" x2="-3.4063" y2="603.9688" gradientTransform="matrix(10.6667 0 0 -10.6667 473.6667 6826.3335)">
	<stop  offset="0" style="stop-color:#31646F"/>
	<stop  offset="1" style="stop-color:#566958"/>
</linearGradient>
<rect x="330.667" y="373.333" style="fill:url(#SVGID_6_);" width="106.667" height="21.333"/>
<g>
</g>
<g>
</g>
<g>
</g>
<g>
</g>
<g>
</g>
<g>
</g>
<g>
</g>
<g>
</g>
<g>
</g>
<g>
</g>
<g>
</g>
<g>
</g>
<g>
</g>
<g>
</g>
<g>
</g>
</svg>
